<svg width="120" height="120" viewBox="0 0 120 120" fill="none" xmlns="http://www.w3.org/2000/svg">
<rect width="120" height="120" fill="#151515"/>
<path d="M12.198 47.857V47.357H11.5025L11.724 48.0163L12.198 47.857ZM18.072 47.857L18.553 47.7204L18.4498 47.357H18.072V47.857ZM23.0385 65.347V65.847H23.7002L23.5195 65.2104L23.0385 65.347ZM21.8175 65.347L21.3359 65.2124L21.1586 65.847H21.8175V65.347ZM26.52 48.517V48.017H26.1406L26.0384 48.3824L26.52 48.517ZM30.084 48.517L30.5609 48.3667L30.4506 48.017H30.084V48.517ZM35.265 64.951V65.451H35.9469L35.7419 64.8007L35.265 64.951ZM34.1925 64.951L33.7103 64.8188L33.537 65.451H34.1925V64.951ZM38.8785 47.857V47.357H38.4971L38.3963 47.7248L38.8785 47.857ZM44.868 47.857L45.3423 48.0153L45.562 47.357H44.868V47.857ZM37.476 70V70.5H37.8362L37.9503 70.1583L37.476 70ZM31.9155 70L31.4392 70.1522L31.5504 70.5H31.9155V70ZM28.3515 58.846V58.346H27.6668L27.8752 58.9982L28.3515 58.846ZM28.5825 58.846L29.0608 58.9917L29.2576 58.346H28.5825V58.846ZM25.1835 70V70.5H25.5538L25.6618 70.1457L25.1835 70ZM19.6395 70L19.1655 70.1593L19.2801 70.5H19.6395V70ZM12.198 48.357H18.072V47.357H12.198V48.357ZM17.591 47.9936L22.5575 65.4836L23.5195 65.2104L18.553 47.7204L17.591 47.9936ZM23.0385 64.847H21.8175V65.847H23.0385V64.847ZM22.2991 65.4816L27.0016 48.6516L26.0384 48.3824L21.3359 65.2124L22.2991 65.4816ZM26.52 49.017H30.084V48.017H26.52V49.017ZM29.6071 48.6673L34.7881 65.1013L35.7419 64.8007L30.5609 48.3667L29.6071 48.6673ZM35.265 64.451H34.1925V65.451H35.265V64.451ZM34.6747 65.0832L39.3607 47.9892L38.3963 47.7248L33.7103 64.8188L34.6747 65.0832ZM38.8785 48.357H44.868V47.357H38.8785V48.357ZM44.3937 47.6987L37.0017 69.8417L37.9503 70.1583L45.3423 48.0153L44.3937 47.6987ZM37.476 69.5H31.9155V70.5H37.476V69.5ZM32.3918 69.8478L28.8278 58.6938L27.8752 58.9982L31.4392 70.1522L32.3918 69.8478ZM28.3515 59.346H28.5825V58.346H28.3515V59.346ZM28.1042 58.7002L24.7052 69.8543L25.6618 70.1457L29.0608 58.9917L28.1042 58.7002ZM25.1835 69.5H19.6395V70.5H25.1835V69.5ZM20.1135 69.8407L12.672 47.6977L11.724 48.0163L19.1655 70.1593L20.1135 69.8407ZM44.0471 70L43.5733 69.8404L43.3511 70.5H44.0471V70ZM51.5051 47.857V47.357H51.1459L51.0313 47.6974L51.5051 47.857ZM58.2206 47.857L58.6971 47.7054L58.5862 47.357H58.2206V47.857ZM65.2661 70V70.5H65.9499L65.7426 69.8484L65.2661 70ZM59.7056 70L59.228 70.1478L59.3369 70.5H59.7056V70ZM58.5011 66.106L58.9788 65.9582L58.8698 65.606H58.5011V66.106ZM50.8616 66.106V65.606H50.4929L50.384 65.9582L50.8616 66.106ZM49.6571 70V70.5H50.0258L50.1348 70.1478L49.6571 70ZM52.1981 62.1955L51.7219 62.0432L51.5133 62.6955H52.1981V62.1955ZM57.2966 62.1955V62.6955H57.9748L57.7743 62.0476L57.2966 62.1955ZM54.7886 54.094L55.2663 53.9461L54.7963 52.4282L54.3124 53.9417L54.7886 54.094ZM44.521 70.1596L51.979 48.0166L51.0313 47.6974L43.5733 69.8404L44.521 70.1596ZM51.5051 48.357H58.2206V47.357H51.5051V48.357ZM57.7442 48.0086L64.7897 70.1516L65.7426 69.8484L58.6971 47.7054L57.7442 48.0086ZM65.2661 69.5H59.7056V70.5H65.2661V69.5ZM60.1833 69.8522L58.9788 65.9582L58.0235 66.2538L59.228 70.1478L60.1833 69.8522ZM58.5011 65.606H50.8616V66.606H58.5011V65.606ZM50.384 65.9582L49.1795 69.8522L50.1348 70.1478L51.3393 66.2538L50.384 65.9582ZM49.6571 69.5H44.0471V70.5H49.6571V69.5ZM52.1981 62.6955H57.2966V61.6955H52.1981V62.6955ZM57.7743 62.0476L55.2663 53.9461L54.311 54.2419L56.819 62.3434L57.7743 62.0476ZM54.3124 53.9417L51.7219 62.0432L52.6744 62.3478L55.2649 54.2463L54.3124 53.9417ZM75.0532 64.1425L74.5735 64.0015L74.3852 64.6425H75.0532V64.1425ZM79.8382 47.857V47.357H79.464L79.3585 47.716L79.8382 47.857ZM85.3492 47.857L85.8239 48.0141L86.0413 47.357H85.3492V47.857ZM78.0232 70V70.5H78.3844L78.4979 70.1571L78.0232 70ZM72.4462 70L71.9707 70.1545L72.0829 70.5H72.4462V70ZM65.2522 47.857V47.357H64.564L64.7767 48.0115L65.2522 47.857ZM70.8292 47.857L71.3097 47.7187L71.2056 47.357H70.8292V47.857ZM75.5152 64.1425V64.6425H76.1794L75.9957 64.0042L75.5152 64.1425ZM75.5329 64.2835L80.3179 47.998L79.3585 47.716L74.5735 64.0015L75.5329 64.2835ZM79.8382 48.357H85.3492V47.357H79.8382V48.357ZM84.8745 47.6999L77.5485 69.8429L78.4979 70.1571L85.8239 48.0141L84.8745 47.6999ZM78.0232 69.5H72.4462V70.5H78.0232V69.5ZM72.9217 69.8455L65.7277 47.7025L64.7767 48.0115L71.9707 70.1545L72.9217 69.8455ZM65.2522 48.357H70.8292V47.357H65.2522V48.357ZM70.3487 47.9953L75.0347 64.2808L75.9957 64.0042L71.3097 47.7187L70.3487 47.9953ZM75.5152 63.6425H75.0532V64.6425H75.5152V63.6425ZM88.6832 70H88.1832V70.5H88.6832V70ZM88.6832 47.857V47.357H88.1832V47.857H88.6832ZM103.484 47.857H103.984V47.357H103.484V47.857ZM103.484 52.4275V52.9275H103.984V52.4275H103.484ZM93.9632 52.4275V51.9275H93.4632V52.4275H93.9632ZM93.9632 56.6845H93.4632V57.1845H93.9632V56.6845ZM102.89 56.6845H103.39V56.1845H102.89V56.6845ZM102.89 61.2715V61.7715H103.39V61.2715H102.89ZM93.9632 61.2715V60.7715H93.4632V61.2715H93.9632ZM93.9632 65.38H93.4632V65.88H93.9632V65.38ZM103.484 65.38H103.984V64.88H103.484V65.38ZM103.484 70V70.5H103.984V70H103.484ZM89.1832 70V47.857H88.1832V70H89.1832ZM88.6832 48.357H103.484V47.357H88.6832V48.357ZM102.984 47.857V52.4275H103.984V47.857H102.984ZM103.484 51.9275H93.9632V52.9275H103.484V51.9275ZM93.4632 52.4275V56.6845H94.4632V52.4275H93.4632ZM93.9632 57.1845H102.89V56.1845H93.9632V57.1845ZM102.39 56.6845V61.2715H103.39V56.6845H102.39ZM102.89 60.7715H93.9632V61.7715H102.89V60.7715ZM93.4632 61.2715V65.38H94.4632V61.2715H93.4632ZM93.9632 65.88H103.484V64.88H93.9632V65.88ZM102.984 65.38V70H103.984V65.38H102.984ZM103.484 69.5H88.6832V70.5H103.484V69.5Z" fill="#2C2C2C"/>
<path d="M73 54.0001C70.2 56.4001 68.8333 58.0001 68.5 58.5001L72 70.5H78.5L84.5 52.5001C81.7 50.5001 79.3333 50.6668 78.5 51.0001L75.5 63L73 54.0001Z" fill="url(#paint0_linear_306_15)"/>
<path d="M49.5 52.5L50 53C50.7487 54.0482 52.4931 56.1997 54 57.206L52.5 62H57L56.5 59.5C58.0185 61.4741 61.3357 64.7487 63.4261 63.5L65.5 70H59.5L58.5 66.5H51L50 70H43.5L49.5 52.5Z" fill="url(#paint1_linear_306_15)"/>
<path d="M36.5 53.299C38.1667 51.799 42 49.099 44 50.299L37.5 70.2991H31L28.0191 60.3628C28.0016 60.3788 27.984 60.3949 27.9664 60.411L25 70.2991H19L17 64.2991C20.5501 65.8205 24.6897 63.4035 27.9664 60.411L28 60.2991L28.0191 60.3628C29.8882 58.6474 31.4725 56.7497 32.5 55.2991L34 61.7991L36.5 53.299Z" fill="url(#paint2_linear_306_15)"/>
<path d="M94.5 62.5C91.7 61.3 89.3333 58 88.5 56.5V70H104V66C102.4 66.4 100 65.5 99 65H94.5V62.5Z" fill="url(#paint3_linear_306_15)"/>
<defs>
<linearGradient id="paint0_linear_306_15" x1="70.5" y1="67" x2="82" y2="57" gradientUnits="userSpaceOnUse">
<stop stop-color="#59AFFF"/>
<stop offset="1" stop-color="#267CFE"/>
</linearGradient>
<linearGradient id="paint1_linear_306_15" x1="46.5" y1="61" x2="64.5" y2="69" gradientUnits="userSpaceOnUse">
<stop stop-color="#267CFE"/>
<stop offset="1" stop-color="#59AFFF"/>
</linearGradient>
<linearGradient id="paint2_linear_306_15" x1="42.5" y1="58" x2="17" y2="69" gradientUnits="userSpaceOnUse">
<stop stop-color="#267CFE"/>
<stop offset="1" stop-color="#59AFFF"/>
</linearGradient>
<linearGradient id="paint3_linear_306_15" x1="88" y1="64.5" x2="104" y2="69" gradientUnits="userSpaceOnUse">
<stop stop-color="#267CFE"/>
<stop offset="1" stop-color="#59AFFF"/>
</linearGradient>
</defs>
</svg>
